<?xml version="1.0" standalone="no"?>
<!DOCTYPE svg PUBLIC "-//W3C//DTD SVG 20010904//EN"
 "http://www.w3.org/TR/2001/REC-SVG-20010904/DTD/svg10.dtd">
<svg version="1.0" xmlns="http://www.w3.org/2000/svg"
 width="612.000000pt" height="544.000000pt" viewBox="0 0 612.000000 544.000000"
 preserveAspectRatio="xMidYMid meet">
<metadata>
Created by potrace 1.15, written by Peter Selinger 2001-2017
</metadata>
<g transform="translate(0.000000,544.000000) scale(0.100000,-0.100000)"
fill="#000000" stroke="none">
<path d="M1030 5417 c-132 -45 -229 -124 -288 -235 -17 -32 -191 -518 -387
-1081 l-355 -1022 0 -1404 c0 -1392 0 -1405 21 -1459 27 -73 96 -148 167 -183
l57 -28 250 -3 c236 -3 254 -2 308 18 80 30 156 102 193 182 27 62 28 68 32
271 l4 207 2033 0 2034 0 3 -223 c3 -218 3 -223 30 -272 32 -62 103 -129 166
-158 44 -21 62 -22 312 -22 250 0 268 1 312 22 63 29 134 96 166 158 l27 50 3
1421 2 1422 -326 938 c-179 517 -339 976 -354 1021 -60 174 -138 277 -256 340
-127 67 24 63 -2134 63 l-1955 -1 -65 -22z m3901 -519 c5 -13 119 -353 253
-755 l244 -733 -2368 0 -2368 0 244 733 c134 402 248 742 254 755 l10 22 1860
0 1860 0 11 -22z m-3586 -2210 c186 -61 317 -218 344 -414 34 -240 -134 -486
-374 -549 -261 -68 -531 89 -609 354 -24 83 -21 211 8 293 92 261 372 401 631
316z m3740 0 c83 -28 141 -64 205 -129 193 -196 187 -514 -14 -707 -275 -265
-721 -143 -830 227 -22 76 -21 204 4 282 81 265 371 414 635 327z"/>
</g>
</svg>
