<?xml version="1.0" standalone="no"?>
<!DOCTYPE svg PUBLIC "-//W3C//DTD SVG 20010904//EN"
 "http://www.w3.org/TR/2001/REC-SVG-20010904/DTD/svg10.dtd">
<svg version="1.0" xmlns="http://www.w3.org/2000/svg"
 width="340.000000pt" height="544.000000pt" viewBox="0 0 340.000000 544.000000"
 preserveAspectRatio="xMidYMid meet">
<metadata>
Created by potrace 1.15, written by Peter Selinger 2001-2017
</metadata>
<g transform="translate(0.000000,544.000000) scale(0.100000,-0.100000)"
fill="#000000" stroke="none">
<path d="M1497 5425 c-249 -68 -406 -313 -368 -572 54 -370 479 -563 787 -358
226 149 300 436 177 680 -56 109 -184 211 -312 249 -66 19 -215 20 -284 1z"/>
<path d="M1313 4310 c-97 -20 -127 -46 -611 -524 -139 -138 -259 -263 -267
-277 -12 -22 -71 -332 -135 -709 -28 -160 -24 -226 16 -282 91 -129 301 -110
359 34 9 23 43 193 76 377 33 185 63 347 67 359 6 20 282 306 288 299 2 -3
-86 -736 -127 -1052 -63 -491 -149 -946 -196 -1039 -14 -28 -188 -267 -387
-531 -199 -264 -370 -499 -379 -523 -27 -67 -23 -176 9 -240 79 -159 285 -209
431 -103 44 32 81 79 550 702 176 233 325 440 331 459 7 19 56 253 111 520 55
267 102 498 106 513 l7 28 16 -23 c9 -13 129 -165 267 -338 543 -682 638 -804
656 -844 10 -23 70 -236 135 -475 64 -239 122 -448 129 -465 45 -107 134 -167
257 -174 72 -4 83 -2 143 27 104 52 155 135 155 255 0 62 -78 374 -230 913
l-62 221 -499 627 c-275 345 -506 640 -514 655 -12 23 -11 53 10 236 14 115
30 256 36 314 6 58 14 108 18 112 3 4 47 -61 96 -144 132 -222 133 -223 440
-382 472 -244 505 -258 577 -259 94 -1 150 35 189 118 39 85 16 183 -58 244
-21 18 -176 102 -345 187 -169 86 -325 172 -348 191 -37 32 -216 321 -504 814
-62 107 -116 162 -173 178 -45 13 -577 13 -640 1z"/>
</g>
</svg>
