<svg xmlns="http://www.w3.org/2000/svg" xmlns:xlink="http://www.w3.org/1999/xlink" viewBox="0 0 428.7 100.4"><path d="M65.6 11.1v14.6H35.4v14.2h30.2v14.6H35.4V84h-22V11.1h52.2zm79.9 67.5c-9.6 4.9-19.1 6.5-28.7 6.5C91 85 75.6 69.8 75.6 47.5c0-25.8 19.6-37.4 41.5-37.4 12.3 0 22.3 3.4 28.1 5.5V35c-4.1-2.5-12.3-7.9-23.1-7.9C109.6 27.1 98 35 98 47.8c0 11.1 9.5 20.2 22.9 20.2 11.7 0 20.3-5.2 24.6-7.9v18.5zm84.6-67.5v17.7h-26.7V84h-22V28.9h-26.7V11.1h75.4zm18.4 15.7h2.4V12.2h-2.4v-1.5h12.2v3.8h-1.5v-2.3h-5.5v6.5h4.3v-2.1h1.5v6.1H258v-2.5h-4.3v6.6h2.4v1.5h-7.7v-1.5zm13.3-10.7h4.9v8.4c0 1.6.9 2.5 2.2 2.5.8 0 1.9-.4 3-1.3v-8.5h-2.2V16h4.9v11h2.2v1.2h-4.9v-1.5c-1.5 1.3-3 1.8-4.4 1.8-2.2 0-3.5-1.2-3.5-3.7v-7.6h-2.2v-1.1zm16 11h2.2v-9.8h-2.2v-1.2h4.9v1.4c1.4-1 2.9-1.7 4.5-1.7 1.9 0 3.4 1.2 3.4 3.6v7.8h2.2v1.2H286v-1.2h1.9V20c0-1.7-.9-2.5-2.2-2.5-.9 0-2 .5-3 1.3v8.5h2v1.2h-6.9v-1.4zm25.3 0H302c-2.9 0-5-1.4-5-5.1 0-3 1.2-4.7 3.3-4.7.9 0 2 .5 2.9 1.4v8.4zM301 10.2h2.2v7c-1.2-1-2.5-1.6-3.7-1.6-3 0-5.4 2.8-5.4 6.3 0 3.9 2.7 6.3 7 6.3h7V27h-2.2V9H301v1.2zm14.4 12.3v3.3c-.8.6-1.4.9-2 .9a1.58 1.58 0 0 1-1.6-1.6c0-1.2 1-2 3.6-2.6zm-5.6-3.9c1.5-.9 2.5-1.3 3.5-1.3 1.6 0 2.1 1 2.1 2.4v1.6l-2.7.7c-2.4.6-3.4 1.6-3.4 3.4s1.2 3.2 2.8 3.2c1.1 0 2.1-.7 3.6-1.8.6 1.3 1.3 1.8 2.2 1.8.8 0 1.8-.4 2.7-1v-.8c-.3.1-1 .2-1.3.2-.7 0-1.3-.8-1.3-2v-5c0-2.7-1.5-4.3-3.8-4.3-1.5 0-3.2.7-4.7 2l.3.9zm16.5 9.8c-2.7-.6-4.6-3.2-4.6-6.6 0-3.6 2.4-6.2 5.8-6.2 1 0 1.8.2 3.2.8l.2-.7h.8v3.8h-.7c-.3-1.8-1.6-2.7-3-2.7-2 0-3.3 1.4-3.3 4.6 0 3.6 1.4 5.5 3.9 5.5 2 0 3.2-1.3 3.5-1.3.2 0 .4.5.4.7 0 .5-1.9 2.2-5 2.2l-.4.8c1.1.1 2 1 2 2.2 0 1.3-1.3 3.2-5.1 2.9v-1.1c1.9 0 2.9-.4 2.9-1.3 0-.6-.5-1-1.7-1.1l1.1-2.5zm13.7-5.9v3.3c-.8.6-1.4.9-2 .9a1.58 1.58 0 0 1-1.6-1.6c0-1.2 1.1-2 3.6-2.6zm-5.5-3.9c1.5-.9 2.5-1.3 3.5-1.3 1.6 0 2.1 1 2.1 2.4v1.6l-2.7.7c-2.4.6-3.4 1.6-3.4 3.4s1.2 3.2 2.8 3.2c1.1 0 2.1-.7 3.6-1.8.6 1.3 1.3 1.8 2.2 1.8.8 0 1.8-.4 2.7-1v-.8c-.3.1-1 .2-1.3.2-.7 0-1.3-.8-1.3-2v-5c0-2.7-1.5-4.3-3.8-4.3-1.5 0-3.2.7-4.7 2l.3.9zm1.2-5.6c.1-.6.6-1.1 1.1-1.1.9 0 2.3 1.1 3.7 1.1s2.3-1.1 2.7-3.3h-1c-.2.8-.6 1.1-1.2 1.1-.9 0-2.1-1.1-3.5-1.1s-2.6 1.5-2.6 3.3h.8zm13.7 9.2c0-3.3 1.4-5.3 3.7-5.3s3.7 2 3.7 5.3-1.4 5.3-3.7 5.3c-2.3-.1-3.7-2-3.7-5.3zm-3 0c0 3.6 2.9 6.5 6.7 6.5s6.7-2.8 6.7-6.5c0-3.6-2.9-6.5-6.7-6.5s-6.7 2.8-6.7 6.5zm-93 23.9c1-1.2 1.7-1.6 2.7-1.6 2.1 0 3.4 2.2 3.4 5.6 0 2.7-1.1 4.8-3.2 4.8-1.1 0-2.2-.7-2.9-1.8v-7zm-4.9 16.8h7v-1.2h-2.1v-6.6c.9.7 2 1 3.2 1 4.5 0 5.9-3.7 5.9-6.7 0-4.5-3-6.2-5.5-6.2-.7 0-1.3.1-1.9.4-.6.2-1.1.6-1.7 1.2v-1.2h-4.9v1.2h2.2v17h-2.2v1.1z"/><use xlink:href="#B"/><path d="M276.4 54.5h2.2v-9.8h-2.2v-1.2h4.9v2.1h.1c1.5-1.8 2.2-2.4 3-2.4.7 0 1.4.4 2.1 1.2-.2 1.2-.6 2.2-1.1 3-.7-1.3-1.1-1.7-1.9-1.7s-1.4.5-2.1 1.5v7.5h2.2v1.2h-7.1v-1.4z"/><use xlink:href="#C"/><use xlink:href="#C" x="20.8"/><path d="M344.6 54c-1.7 1.4-3.9 2.1-6.4 2.1-5.2 0-8.9-4-8.9-8.9 0-5.3 3.8-9.3 9.1-9.3 1.5 0 2.9.3 4.2.8l.2-1h1.1v5.1h-1.3c-.5-2.2-2.1-3.4-4.3-3.4-3.4 0-5.6 2.9-5.6 7.4 0 4.7 2.5 7.8 6.4 7.8 1.7 0 3.5-.6 5.5-2.1V54zm1.5.5h2.1v-9.8h-2.1v-1.2h4.8v11h2.1v1.2h-6.9v-1.2zm4.9-15.3c0 .9-.8 1.7-1.7 1.7s-1.7-.8-1.7-1.7.8-1.7 1.7-1.7c1 0 1.7.8 1.7 1.7zm6.7 8.3c.2-2.1.8-3.1 2.5-3.1 1.5 0 2.5 1.1 2.7 3.1h-5.2zm8 1.2c-.5-3.5-2.4-5.5-5.4-5.5-3.4 0-5.6 2.4-5.6 6.1 0 3.4 2.3 6.8 6.4 6.8 1.7 0 2.6-.3 4.6-1.6l.2-1.3c-1.5.9-2.8 1.4-4.1 1.4-2.6 0-4.2-2.4-4.2-5.9h8.1zm-8.6-7.5l3.1-2.2 3.1 2.2h1.1l-3.4-4.7h-1.7l-3.4 4.7h1.2zm10 13.3h2.2v-9.8h-2.2v-1.2h4.9v1.4c1.4-1 2.9-1.7 4.5-1.7 1.9 0 3.4 1.2 3.4 3.6v7.8h2.2v1.2h-6.8v-1.2h1.9v-7.2c0-1.7-.9-2.5-2.2-2.5-.9 0-2 .5-3 1.3v8.5h2v1.2h-6.9v-1.4zm26.3-7.5h-.8c-.3-1.8-1.6-2.7-2.9-2.7-2 0-3.3 1.4-3.3 4.6 0 3.6 1.4 5.5 3.9 5.5 2 0 3.2-1.3 3.5-1.3.2 0 .4.5.4.7 0 .5-2 2.2-4.8 2.2-3.4 0-6-2.9-6-6.7 0-3.6 2.4-6.2 5.8-6.2 1 0 1.8.2 3.1.8l.2-.7h.8V47zm2.1 7.5h2.1v-9.8h-2.1v-1.2h4.8v11h2.1v1.2h-6.9v-1.2zm4.9-15.3c0 .9-.8 1.7-1.7 1.7s-1.7-.8-1.7-1.7.8-1.7 1.7-1.7 1.7.8 1.7 1.7z"/><use xlink:href="#B" x="139.7"/><path d="M251.4 75.8c.2-2.1.8-3.1 2.5-3.1 1.5 0 2.5 1.1 2.7 3.1h-5.2zm8.1 1.2c-.5-3.5-2.4-5.5-5.4-5.5-3.4 0-5.6 2.4-5.6 6.1 0 3.4 2.3 6.8 6.4 6.8 1.7 0 2.6-.3 4.6-1.6l.2-1.3c-1.5.9-2.8 1.4-4.1 1.4-2.6 0-4.2-2.4-4.2-5.9h8.1zm16.2 1.3v3.3c-.8.6-1.4.9-2 .9a1.58 1.58 0 0 1-1.6-1.6c0-1.2 1-2 3.6-2.6zm-5.5-3.9c1.5-.9 2.5-1.3 3.5-1.3 1.6 0 2.1 1 2.1 2.4v1.6l-2.7.7c-2.4.6-3.4 1.6-3.4 3.4s1.2 3.2 2.8 3.2c1.1 0 2.1-.7 3.6-1.8.6 1.3 1.3 1.8 2.2 1.8.8 0 1.8-.4 2.7-1v-.8c-.3.1-1 .2-1.3.2-.7 0-1.3-.8-1.3-2v-5c0-2.7-1.5-4.3-3.8-4.3-1.5 0-3.2.7-4.7 2l.3.9zm20.4 8.2h2.4v-14h-4.5V71H287v-5.3h1.5v.9h11.8v-.9h1.5V71h-1.5v-2.4h-4.5v14h2.4v1.5h-7.7v-1.5zm12.9-6.8c.2-2.1.8-3.1 2.5-3.1 1.5 0 2.5 1.1 2.7 3.1h-5.2zm8 1.2c-.5-3.5-2.4-5.5-5.4-5.5-3.4 0-5.6 2.4-5.6 6.1 0 3.4 2.3 6.8 6.4 6.8 1.7 0 2.6-.3 4.6-1.6l.2-1.3c-1.5.9-2.8 1.4-4.1 1.4-2.6 0-4.2-2.4-4.2-5.9h8.1zm11.8-1.7h-.8c-.3-1.8-1.6-2.7-2.9-2.7-2 0-3.3 1.4-3.3 4.6 0 3.6 1.4 5.5 3.9 5.5 2 0 3.2-1.3 3.5-1.3.2 0 .4.5.4.7 0 .5-2 2.2-4.8 2.2-3.4 0-6-2.9-6-6.7 0-3.6 2.4-6.2 5.8-6.2 1 0 1.8.2 3.1.8l.2-.7h.8v3.8zm1.7 7.6h2.2V73H325v-1.2h4.9v1.4c1.4-1 2.9-1.7 4.5-1.7 1.9 0 3.4 1.2 3.4 3.6v7.8h2.2v1.2h-6.8v-1.2h1.9v-7.2c0-1.7-.9-2.5-2.2-2.5-.9 0-2 .5-3 1.3V83h2v1.2H325v-1.3z"/><use xlink:href="#D"/><path d="M356.3 82.9h2.2V66h-2.2v-1.2h4.9v18h2.1V84h-6.9v-1.1z"/><use xlink:href="#D" x="23.4"/><path d="M382.9 76.1c0-2.2 1-3.5 2.7-3.5 1.6 0 2.6 1.4 2.6 3.7 0 2.2-1 3.6-2.6 3.6-1.7-.1-2.7-1.5-2.7-3.8zm9-4.3h-3.8c-.4 0-.7-.1-1.1-.2s-.9-.2-1.7-.2c-3 0-5.2 1.9-5.2 4.7 0 2.3 1.4 3.9 4 4.6v.1l-.4.1c-1.4.4-2.1 1.1-2.1 1.9 0 .7.5 1.4 1.5 2.1-2.4.8-3.6 1.9-3.6 3.1 0 1.5 2.2 3.4 6 3.4 3.7 0 6.1-1.6 6.1-4 0-.8-.2-1.3-.8-2-1.9-1.9-6.7-1.8-6.7-3.3 0-.2.1-.2.2-.4.9-.9 3.1-.2 5.3-2.4.8-.8 1.3-2.1 1.3-3.2s-.4-2.1-1.2-3h2.2v-1.3zm-7.7 13.5c3.9 1.1 5.3 1.7 5.3 2.8 0 .5-.4 1-1 1.2s-1.8.4-2.8.4c-2.1 0-3.5-.8-3.5-2 0-.9.5-1.5 2-2.4zm8.8-2.4h2.1V73H393v-1.2h4.8v11h2.1V84H393v-1.1zm4.9-15.4c0 .9-.8 1.7-1.7 1.7s-1.7-.8-1.7-1.7.8-1.7 1.7-1.7 1.7.8 1.7 1.7zm9.7 10.8v3.3c-.8.6-1.4.9-2 .9a1.58 1.58 0 0 1-1.6-1.6c.1-1.2 1.1-2 3.6-2.6zm-5.5-3.9c1.5-.9 2.5-1.3 3.5-1.3 1.6 0 2.1 1 2.1 2.4v1.6l-2.7.7c-2.4.6-3.4 1.6-3.4 3.4s1.2 3.2 2.8 3.2c1.1 0 2.1-.7 3.6-1.8.6 1.3 1.3 1.8 2.2 1.8.8 0 1.8-.4 2.7-1v-.8c-.3.1-1 .2-1.3.2-.7 0-1.3-.8-1.3-2v-5c0-2.7-1.5-4.3-3.8-4.3-1.5 0-3.2.7-4.7 2l.3.9z"/><defs ><path id="B" d="M270.4 50v3.3c-.8.6-1.4.9-2 .9a1.58 1.58 0 0 1-1.6-1.6c0-1.3 1.1-2 3.6-2.6zm-5.5-4c1.5-.9 2.5-1.3 3.5-1.3 1.6 0 2.1 1 2.1 2.4v1.6l-2.7.7c-2.4.6-3.4 1.6-3.4 3.4s1.2 3.2 2.8 3.2c1.1 0 2.1-.7 3.6-1.8.6 1.3 1.3 1.8 2.2 1.8.8 0 1.8-.4 2.7-1v-.8c-.3.1-1 .2-1.3.2-.7 0-1.3-.8-1.3-2v-5c0-2.7-1.5-4.3-3.8-4.3-1.5 0-3.2.7-4.7 2l.3.9z"/><path id="C" d="M293.9 50v3.3c-.8.6-1.4.9-2 .9a1.58 1.58 0 0 1-1.6-1.6c0-1.3 1-2 3.6-2.6zm-5.5-4c1.5-.9 2.5-1.3 3.5-1.3 1.6 0 2.1 1 2.1 2.4v1.6l-2.7.7c-2.4.6-3.4 1.6-3.4 3.4s1.2 3.2 2.8 3.2c1.1 0 2.1-.7 3.6-1.8.6 1.3 1.3 1.8 2.2 1.8.8 0 1.8-.4 2.7-1v-.8c-.3.1-1 .2-1.3.2-.7 0-1.3-.8-1.3-2v-5c0-2.7-1.5-4.3-3.8-4.3-1.5 0-3.2.7-4.7 2l.3.9z"/><path id="D" d="M344.3 77.9c0-3.3 1.4-5.3 3.7-5.3s3.7 2 3.7 5.3-1.4 5.3-3.7 5.3-3.7-1.9-3.7-5.3zm-3 0c0 3.6 2.9 6.5 6.7 6.5s6.7-2.8 6.7-6.5c0-3.6-2.9-6.5-6.7-6.5-3.8.1-6.7 2.9-6.7 6.5z"/></defs></svg>