<svg xmlns="http://www.w3.org/2000/svg" xmlns:xlink="http://www.w3.org/1999/xlink" viewBox="0 0 126.3 44.4"><path d="M9.2 12.2L8 9.3H4l-1.2 2.9H.5L5.2.9h1.6l4.7 11.3c.1 0-2.3 0-2.3 0zM6 3.8L4.7 7.3h2.6L6 3.8zm16.3 8.4V3.7h-.1l-2.9 8.5h-1.8l-2.9-8.5v8.5h-2.1V.9h2.9l3 8.5 3-8.5h2.9v11.3c.1 0-2 0-2 0zm4 0V.9h6.1v2h-4v2.8h3.8v2h-3.8v2.7h4v2l-6.1-.2zm13.1 0l-3-4.3v4.3h-2.1V.9h3.5c1 0 2 .1 2.7.7.8.7 1.3 1.7 1.3 2.7s-.4 2-1.1 2.7c-.6.5-1.1.7-1.9.9l3.1 4.2c0 .1-2.5.1-2.5.1zm-1.7-9.3h-1.4v3.4h1.4c1.1 0 2-.5 2-1.7s-.9-1.7-2-1.7zm5.6 9.3V.9h2.1v11.3h-2.1zm12.4-8.1c-.8-.9-1.8-1.5-3-1.5-2.1 0-3.7 1.9-3.7 3.9s1.7 3.9 3.7 3.9c1.2 0 2-.5 2.8-1.4H58c-.9 2-3 3.4-5.2 3.4-3.2 0-5.9-2.7-5.9-5.9S49.6.7 52.7.7C55 .7 57.1 2 58 4.1h-2.3zm11.5 8.1L66 9.3h-4l-1.2 2.9h-2.3L63.2.9h1.6l4.7 11.3h-2.3zM64 3.8l-1.3 3.5h2.6L64 3.8zm13.5 8.4L72.8 4v8.2h-2.1V.9h2.4l4.6 8.2V.9h2.1v11.3h-2.3zm-70 16.3C4 28.5 1 25.7 1 22.1s2.9-6.3 6.4-6.3c2.2 0 4.2 1 5.4 2.9.4.6.7 1.3.8 2h-3.3c-.5-1.3-1.6-2.1-3-2.1-2 0-3.3 1.7-3.3 3.6s1.3 3.6 3.3 3.6c1.4 0 2.4-.9 2.9-2.1h3.3c-.5 2.9-3 4.8-6 4.8zm13.7 0c-3.5 0-6.4-2.7-6.4-6.2 0-.9.1-1.8.5-2.6.2-.5.5-1 .8-1.4 1.3-1.6 3.1-2.5 5.2-2.5 3.6 0 6.5 2.7 6.5 6.3-.1 3.7-3 6.4-6.6 6.4zm0-9.9c-2 0-3.3 1.6-3.3 3.6s1.3 3.6 3.4 3.6c2 0 3.3-1.7 3.3-3.6s-1.4-3.6-3.4-3.6z"/><use xlink:href="#B"/><path d="M47.8 28.3l-4.7-7.4.1 7.4h-3V16.1h2.7l4.7 7.7-.1-7.7h3v12.2h-2.7zm4.9 0V16.1h6.8v2.7h-3.8v1.9h3.7v2.7h-3.7v2.1h3.8v2.7h-6.8z"/><use xlink:href="#B" x="32.1"/><path d="M76 28.5c-2.5 0-4.4-1.3-4.4-3.9v-.4h3.1c0 .8.4 1.7 1.3 1.7.6 0 1.2-.5 1.2-1.2 0-.8-.7-1.1-1.3-1.3l-1.1-.5c-1.6-.7-3-1.6-3-3.5 0-2.3 2.2-3.6 4.3-3.6 1.2 0 2.5.4 3.3 1.4.6.8.8 1.4.8 2.4h-3.1c-.1-.7-.3-1.2-1.1-1.2-.5 0-1.1.4-1.1 1 0 .2 0 .4.1.5.3.5 1.9 1.1 2.4 1.4 1.6.7 2.9 1.6 2.9 3.5 0 2.5-1.9 3.7-4.3 3.7zm46.2 13l1.2-3.5-2.7-2h3.5l.7-2.2c-1.5-6.8-4.7-13-9.1-18.1l-2.1 1.6.9-2.9c-.4-.4-.7-.8-1.1-1.2L112 12h.3c-1.5-1.4-3.1-2.7-4.9-3.9l-1.7 1.2.7-1.8c-4.2-2.7-9-4.7-14.1-5.8l.9 2.3h3.2l-2.7 2 1 3.2-2.7-2-2.7 2L90.5 6l-2.7-2H91l.8-2.5C89.9 1.1 88 .8 86 .7l.2.5-.8-.5c-.7 0-1.4-.1-2.1-.1v8.6l.1-.3 1 3h3.2l-2.7 2 1.2 3.2-2.7-2-.1.1v10l.1-.3 1 3h3.2L85 30l1.2 3.2-2.7-2-.1.1v11.9h42.5c0-1.2-.1-2.3-.1-3.5l-.6-.5-3 2.3zM107.4 20l1.3-3 1 3h3.3l-2.7 2 1.2 3.2-2.7-2-3 2L107 22l-2.7-2h3.1zM99 12l1-3 1 3h3.5l-2.7 2 1 3.2-2.7-2-2.7 2 1-3.3-2.7-2 3.3.1zm-8 8l1-3 1.2 3h3.2l-2.7 2 1 3.2-2.7-2-2.7 2 1.2-3.2-2.7-2H91zm3.7 21.5L92 39.2l-2.7 2.2 1.2-3.5-2.7-2H91l1-3 1.2 3h3.2l-2.7 2 1 3.6zm5.3-10.3l-2.7 2.2 1-3.5-2.7-2h3.5l1-3 1 3h3.5l-2.7 2 1 3.2-2.9-1.9zm11.4 10.3l-2.7-2.2-3 2.2 1.2-3.5-2.7-2h3.2l1.3-3 1 3h3.3l-2.7 2 1.1 3.5zm5-10.3l-2.7 2.2 1-3.5-2.7-2h3.5l1-3 1 3h3.5l-2.7 2 1 3.2-2.9-1.9zm-94.1 7.2c-.8.7-1.6.7-2.6.7H19v3.6h-1.7v-9.4h2.5c1 0 1.8 0 2.6.7.6.5.9 1.3.9 2.2-.1.8-.3 1.6-1 2.2zm-2.7-3.5H19v2.6h.5c.9 0 2-.1 2-1.3 0-1.1-1-1.3-1.9-1.3zm9.1 8c-2.7 0-4.9-2.2-4.9-4.8a4.91 4.91 0 0 1 4.9-4.9 4.91 4.91 0 0 1 4.9 4.9c0 2.6-2.2 4.8-4.9 4.8zm0-8.2c-1.8 0-3.2 1.5-3.2 3.3s1.4 3.2 3.2 3.2 3.2-1.5 3.2-3.2-1.4-3.3-3.2-3.3zm10.4 8l-2.5-3.6v3.6h-1.7v-9.4h2.9c.8 0 1.6.1 2.3.6s1.1 1.4 1.1 2.3c0 .8-.3 1.7-.9 2.2-.5.5-.9.6-1.6.8l2.5 3.5h-2.1zm-1.4-7.8h-1.1v2.9h1.1c.9 0 1.7-.5 1.7-1.4 0-1-.8-1.5-1.7-1.5zm7.5 0v7.8h-1.7v-7.8h-1.7v-1.6H47v1.6h-1.8zm8.6 6.6c-.6.9-1.7 1.4-2.8 1.4-1 0-2.2-.5-2.8-1.4-.5-.6-.6-1.5-.6-2.3v-5.9h1.7v5.9c0 1.1.3 2 1.6 2s1.6-.9 1.6-2v-5.9h1.7v5.9c.1.8 0 1.6-.4 2.3zm6.6 1.4c-2.7 0-5-2.1-5-4.9 0-2.7 2.3-4.9 5-4.9 1.8 0 3.9 1.2 4.6 2.9h-2.1c-.5-.8-1.5-1.3-2.5-1.3-1.8 0-3.2 1.5-3.2 3.3a3.08 3.08 0 0 0 .3 1.3c.5 1.3 1.7 2 3 2 1.2 0 2.2-.7 2.8-1.7h-3.9V38h6.1v.2c-.1 2.6-2.5 4.7-5.1 4.7zm12.6-.2l-1-2.4h-3.3l-1 2.4h-1.9l3.9-9.4H71l3.9 9.4H73zm-2.7-6.9l-1.1 2.9h2.2l-1.1-2.9zm5.6 6.9v-9.4h1.7v7.8h2.9v1.6h-4.6z"/><defs ><path id="B" d="M35.2 28.3l-2.8-4v4h-3V16.1h3.9c1.3 0 2.7 0 3.8.9 1 .8 1.5 2.1 1.5 3.3 0 1.9-1.1 3.5-3.1 3.9l3.3 4.2h-3.6zm-1.7-9.5h-1.2v3.4h1.1c1.2 0 2-.5 2-1.8.1-1.1-.8-1.6-1.9-1.6z"/></defs></svg>